<mxfile host="Electron" modified="2024-02-23T17:05:11.292Z" agent="Mozilla/5.0 (Windows NT 10.0; Win64; x64) AppleWebKit/537.36 (KHTML, like Gecko) draw.io/22.1.2 Chrome/114.0.5735.289 Electron/25.9.4 Safari/537.36" etag="HopD4lDnXmGzVYZkplJW" version="22.1.2" type="device">
  <diagram name="Page-1" id="juLC3zvcWGA9uQwjYyNq">
    <mxGraphModel dx="878" dy="3217" grid="1" gridSize="10" guides="1" tooltips="1" connect="1" arrows="1" fold="1" page="1" pageScale="1" pageWidth="827" pageHeight="1169" math="0" shadow="0">
      <root>
        <mxCell id="0" />
        <mxCell id="1" parent="0" />
        <mxCell id="imZKD1N6SDobM8C1172t-1" value="PRODUCT" style="swimlane;whiteSpace=wrap;html=1;" parent="1" vertex="1">
          <mxGeometry x="1041" y="-880" width="400" height="450" as="geometry" />
        </mxCell>
        <mxCell id="imZKD1N6SDobM8C1172t-2" value="" style="swimlane;startSize=0;" parent="imZKD1N6SDobM8C1172t-1" vertex="1">
          <mxGeometry x="40" y="100" width="300" height="45" as="geometry" />
        </mxCell>
        <mxCell id="imZKD1N6SDobM8C1172t-3" value="Quantité&amp;nbsp; &amp;nbsp; &amp;nbsp; ADRESSE A" style="text;html=1;align=center;verticalAlign=middle;resizable=0;points=[];autosize=1;strokeColor=none;fillColor=none;" parent="imZKD1N6SDobM8C1172t-2" vertex="1">
          <mxGeometry x="5" y="7.5" width="160" height="30" as="geometry" />
        </mxCell>
        <mxCell id="imZKD1N6SDobM8C1172t-4" value="" style="html=1;verticalLabelPosition=bottom;labelBackgroundColor=#ffffff;verticalAlign=top;shadow=0;dashed=0;strokeWidth=2;shape=mxgraph.ios7.misc.add;fillColor=#00dd00;strokeColor=#ffffff;sketch=0;" parent="imZKD1N6SDobM8C1172t-2" vertex="1">
          <mxGeometry x="170" y="7.5" width="30" height="30" as="geometry" />
        </mxCell>
        <mxCell id="imZKD1N6SDobM8C1172t-5" value="" style="sketch=0;outlineConnect=0;fontColor=#232F3E;gradientColor=none;fillColor=#E7157B;strokeColor=none;dashed=0;verticalLabelPosition=bottom;verticalAlign=top;align=center;html=1;fontSize=12;fontStyle=0;aspect=fixed;pointerEvents=1;shape=mxgraph.aws4.systems_manager_change_manager;" parent="imZKD1N6SDobM8C1172t-2" vertex="1">
          <mxGeometry x="210" y="2.5" width="43.33" height="40" as="geometry" />
        </mxCell>
        <mxCell id="imZKD1N6SDobM8C1172t-6" value="" style="html=1;verticalLabelPosition=bottom;labelBackgroundColor=#ffffff;verticalAlign=top;shadow=0;dashed=0;strokeWidth=2;shape=mxgraph.ios7.misc.delete;fillColor=#ff0000;strokeColor=#ffffff;sketch=0;" parent="imZKD1N6SDobM8C1172t-2" vertex="1">
          <mxGeometry x="260" y="7.5" width="30" height="30" as="geometry" />
        </mxCell>
        <mxCell id="imZKD1N6SDobM8C1172t-7" value="" style="swimlane;startSize=0;" parent="imZKD1N6SDobM8C1172t-1" vertex="1">
          <mxGeometry x="40" y="40" width="160" height="40" as="geometry" />
        </mxCell>
        <mxCell id="imZKD1N6SDobM8C1172t-8" value="TOTAL" style="text;html=1;align=center;verticalAlign=middle;resizable=0;points=[];autosize=1;strokeColor=none;fillColor=none;" parent="imZKD1N6SDobM8C1172t-7" vertex="1">
          <mxGeometry x="50" y="5" width="60" height="30" as="geometry" />
        </mxCell>
        <mxCell id="imZKD1N6SDobM8C1172t-9" value="" style="swimlane;startSize=0;" parent="imZKD1N6SDobM8C1172t-1" vertex="1">
          <mxGeometry x="40" y="170" width="300" height="45" as="geometry" />
        </mxCell>
        <mxCell id="imZKD1N6SDobM8C1172t-10" value="Quantité&amp;nbsp; &amp;nbsp; &amp;nbsp; ADRESSE B" style="text;html=1;align=center;verticalAlign=middle;resizable=0;points=[];autosize=1;strokeColor=none;fillColor=none;" parent="imZKD1N6SDobM8C1172t-9" vertex="1">
          <mxGeometry x="5" y="7.5" width="160" height="30" as="geometry" />
        </mxCell>
        <mxCell id="imZKD1N6SDobM8C1172t-11" value="" style="html=1;verticalLabelPosition=bottom;labelBackgroundColor=#ffffff;verticalAlign=top;shadow=0;dashed=0;strokeWidth=2;shape=mxgraph.ios7.misc.add;fillColor=#00dd00;strokeColor=#ffffff;sketch=0;" parent="imZKD1N6SDobM8C1172t-9" vertex="1">
          <mxGeometry x="170" y="7.5" width="30" height="30" as="geometry" />
        </mxCell>
        <mxCell id="imZKD1N6SDobM8C1172t-12" value="" style="sketch=0;outlineConnect=0;fontColor=#232F3E;gradientColor=none;fillColor=#E7157B;strokeColor=none;dashed=0;verticalLabelPosition=bottom;verticalAlign=top;align=center;html=1;fontSize=12;fontStyle=0;aspect=fixed;pointerEvents=1;shape=mxgraph.aws4.systems_manager_change_manager;" parent="imZKD1N6SDobM8C1172t-9" vertex="1">
          <mxGeometry x="210" y="2.5" width="43.33" height="40" as="geometry" />
        </mxCell>
        <mxCell id="imZKD1N6SDobM8C1172t-13" value="" style="html=1;verticalLabelPosition=bottom;labelBackgroundColor=#ffffff;verticalAlign=top;shadow=0;dashed=0;strokeWidth=2;shape=mxgraph.ios7.misc.delete;fillColor=#ff0000;strokeColor=#ffffff;sketch=0;" parent="imZKD1N6SDobM8C1172t-9" vertex="1">
          <mxGeometry x="260" y="7.5" width="30" height="30" as="geometry" />
        </mxCell>
        <mxCell id="imZKD1N6SDobM8C1172t-16" value="" style="swimlane;startSize=0;" parent="imZKD1N6SDobM8C1172t-1" vertex="1">
          <mxGeometry x="230" y="40" width="150" height="40" as="geometry" />
        </mxCell>
        <mxCell id="imZKD1N6SDobM8C1172t-18" value="Add to address ..." style="text;html=1;align=center;verticalAlign=middle;resizable=0;points=[];autosize=1;strokeColor=none;fillColor=none;" parent="imZKD1N6SDobM8C1172t-16" vertex="1">
          <mxGeometry y="5" width="120" height="30" as="geometry" />
        </mxCell>
        <mxCell id="imZKD1N6SDobM8C1172t-15" value="" style="html=1;verticalLabelPosition=bottom;labelBackgroundColor=#ffffff;verticalAlign=top;shadow=0;dashed=0;strokeWidth=2;shape=mxgraph.ios7.misc.add;fillColor=#00dd00;strokeColor=#ffffff;sketch=0;" parent="imZKD1N6SDobM8C1172t-16" vertex="1">
          <mxGeometry x="109" y="5" width="30" height="30" as="geometry" />
        </mxCell>
        <mxCell id="imZKD1N6SDobM8C1172t-22" value="&lt;b&gt;&lt;font style=&quot;font-size: 16px;&quot;&gt;...&lt;/font&gt;&lt;/b&gt;" style="text;html=1;align=center;verticalAlign=middle;resizable=0;points=[];autosize=1;strokeColor=none;fillColor=none;" parent="imZKD1N6SDobM8C1172t-1" vertex="1">
          <mxGeometry x="170" y="248" width="40" height="30" as="geometry" />
        </mxCell>
        <mxCell id="imZKD1N6SDobM8C1172t-27" style="edgeStyle=orthogonalEdgeStyle;rounded=0;orthogonalLoop=1;jettySize=auto;html=1;" parent="1" source="imZKD1N6SDobM8C1172t-14" target="imZKD1N6SDobM8C1172t-26" edge="1">
          <mxGeometry relative="1" as="geometry" />
        </mxCell>
        <mxCell id="imZKD1N6SDobM8C1172t-14" value="addNewItem: &lt;i&gt;&quot;/add&quot;&lt;/i&gt;" style="swimlane;whiteSpace=wrap;html=1;startSize=23;" parent="1" vertex="1">
          <mxGeometry x="1920" y="-1131" width="200" height="200" as="geometry" />
        </mxCell>
        <mxCell id="imZKD1N6SDobM8C1172t-19" value="&lt;ul&gt;&lt;li&gt;Product ID&lt;/li&gt;&lt;li&gt;Address ID&lt;/li&gt;&lt;li&gt;quantity&lt;/li&gt;&lt;li&gt;employee&lt;/li&gt;&lt;/ul&gt;" style="text;html=1;align=center;verticalAlign=middle;resizable=0;points=[];autosize=1;strokeColor=none;fillColor=none;" parent="imZKD1N6SDobM8C1172t-14" vertex="1">
          <mxGeometry x="-1" y="20" width="120" height="100" as="geometry" />
        </mxCell>
        <mxCell id="imZKD1N6SDobM8C1172t-65" value="Returns 422 if:&lt;br&gt;-&amp;gt; address does not exists&lt;br&gt;-&amp;gt; employee does not exists&lt;br&gt;-&amp;gt; item does not exists&lt;br&gt;quantity &amp;lt;= 0" style="text;html=1;strokeColor=none;fillColor=none;align=center;verticalAlign=middle;whiteSpace=wrap;rounded=0;" parent="imZKD1N6SDobM8C1172t-14" vertex="1">
          <mxGeometry x="18" y="131" width="162" height="30" as="geometry" />
        </mxCell>
        <mxCell id="ZWg43RYlgXbW-FR2VFtU-54" value="&lt;div style=&quot;background-color:#2b2b2b;color:#a9b7c6&quot;&gt;&lt;pre style=&quot;font-family:&#39;JetBrains Mono&#39;,monospace;font-size:9,8pt;&quot;&gt;NewItemRequestDto&lt;/pre&gt;&lt;/div&gt;" style="text;whiteSpace=wrap;html=1;" vertex="1" parent="imZKD1N6SDobM8C1172t-14">
          <mxGeometry x="23" y="165" width="160" height="30" as="geometry" />
        </mxCell>
        <mxCell id="imZKD1N6SDobM8C1172t-20" value="" style="shape=curlyBracket;whiteSpace=wrap;html=1;rounded=1;labelPosition=left;verticalLabelPosition=middle;align=right;verticalAlign=middle;" parent="1" vertex="1">
          <mxGeometry x="1010" y="-780" width="20" height="40" as="geometry" />
        </mxCell>
        <mxCell id="imZKD1N6SDobM8C1172t-21" value="One Item" style="text;html=1;align=center;verticalAlign=middle;resizable=0;points=[];autosize=1;strokeColor=none;fillColor=none;" parent="1" vertex="1">
          <mxGeometry x="940" y="-775" width="70" height="30" as="geometry" />
        </mxCell>
        <mxCell id="imZKD1N6SDobM8C1172t-42" style="edgeStyle=orthogonalEdgeStyle;rounded=0;orthogonalLoop=1;jettySize=auto;html=1;" parent="1" source="imZKD1N6SDobM8C1172t-23" target="imZKD1N6SDobM8C1172t-74" edge="1">
          <mxGeometry relative="1" as="geometry">
            <mxPoint x="2240" y="-771" as="targetPoint" />
          </mxGeometry>
        </mxCell>
        <mxCell id="imZKD1N6SDobM8C1172t-23" value="updateQuantity: &lt;i&gt;&quot;/update&quot;&lt;/i&gt;" style="swimlane;whiteSpace=wrap;html=1;" parent="1" vertex="1">
          <mxGeometry x="1910" y="-871" width="200" height="200" as="geometry" />
        </mxCell>
        <mxCell id="imZKD1N6SDobM8C1172t-24" value="&lt;ul&gt;&lt;li&gt;Item ID&lt;/li&gt;&lt;li&gt;Quantity&lt;/li&gt;&lt;li&gt;employee&lt;/li&gt;&lt;/ul&gt;" style="text;html=1;align=center;verticalAlign=middle;resizable=0;points=[];autosize=1;strokeColor=none;fillColor=none;" parent="imZKD1N6SDobM8C1172t-23" vertex="1">
          <mxGeometry y="30" width="120" height="80" as="geometry" />
        </mxCell>
        <mxCell id="ZWg43RYlgXbW-FR2VFtU-9" value="Returns 422 if:&lt;br&gt;-&amp;gt; employee does not exists&lt;br&gt;-&amp;gt; item does not exists&lt;br&gt;-&amp;gt; quantity is null" style="text;html=1;strokeColor=none;fillColor=none;align=center;verticalAlign=middle;whiteSpace=wrap;rounded=0;" vertex="1" parent="imZKD1N6SDobM8C1172t-23">
          <mxGeometry x="19" y="115" width="162" height="30" as="geometry" />
        </mxCell>
        <mxCell id="ZWg43RYlgXbW-FR2VFtU-51" value="&lt;div style=&quot;background-color:#2b2b2b;color:#a9b7c6&quot;&gt;&lt;pre style=&quot;font-family:&#39;JetBrains Mono&#39;,monospace;font-size:9,8pt;&quot;&gt;QuantityUpdateRequestDto&lt;/pre&gt;&lt;/div&gt;" style="text;whiteSpace=wrap;html=1;" vertex="1" parent="imZKD1N6SDobM8C1172t-23">
          <mxGeometry x="10" y="156" width="180" height="44" as="geometry" />
        </mxCell>
        <mxCell id="imZKD1N6SDobM8C1172t-28" style="edgeStyle=orthogonalEdgeStyle;rounded=0;orthogonalLoop=1;jettySize=auto;html=1;" parent="1" source="imZKD1N6SDobM8C1172t-26" target="imZKD1N6SDobM8C1172t-23" edge="1">
          <mxGeometry relative="1" as="geometry">
            <Array as="points">
              <mxPoint x="2280" y="-831" />
            </Array>
          </mxGeometry>
        </mxCell>
        <mxCell id="imZKD1N6SDobM8C1172t-29" value="TRUE" style="edgeLabel;html=1;align=center;verticalAlign=middle;resizable=0;points=[];" parent="imZKD1N6SDobM8C1172t-28" vertex="1" connectable="0">
          <mxGeometry x="-0.8793" relative="1" as="geometry">
            <mxPoint as="offset" />
          </mxGeometry>
        </mxCell>
        <mxCell id="imZKD1N6SDobM8C1172t-40" style="edgeStyle=orthogonalEdgeStyle;rounded=0;orthogonalLoop=1;jettySize=auto;html=1;endArrow=diamond;endFill=1;" parent="1" source="imZKD1N6SDobM8C1172t-26" target="imZKD1N6SDobM8C1172t-38" edge="1">
          <mxGeometry relative="1" as="geometry" />
        </mxCell>
        <mxCell id="imZKD1N6SDobM8C1172t-26" value="If already&lt;br&gt;exists" style="rhombus;whiteSpace=wrap;html=1;" parent="1" vertex="1">
          <mxGeometry x="2240" y="-1071" width="80" height="80" as="geometry" />
        </mxCell>
        <mxCell id="imZKD1N6SDobM8C1172t-37" value="" style="group" parent="1" vertex="1" connectable="0">
          <mxGeometry x="2510" y="-1051" width="110" height="70" as="geometry" />
        </mxCell>
        <mxCell id="imZKD1N6SDobM8C1172t-32" value="" style="group" parent="imZKD1N6SDobM8C1172t-37" vertex="1" connectable="0">
          <mxGeometry x="35" width="40" height="40" as="geometry" />
        </mxCell>
        <mxCell id="imZKD1N6SDobM8C1172t-30" value="" style="ellipse;whiteSpace=wrap;html=1;" parent="imZKD1N6SDobM8C1172t-32" vertex="1">
          <mxGeometry width="40" height="40" as="geometry" />
        </mxCell>
        <mxCell id="imZKD1N6SDobM8C1172t-31" value="200" style="ellipse;whiteSpace=wrap;html=1;" parent="imZKD1N6SDobM8C1172t-32" vertex="1">
          <mxGeometry x="5" y="5" width="30" height="30" as="geometry" />
        </mxCell>
        <mxCell id="imZKD1N6SDobM8C1172t-36" value="Create new Item" style="text;html=1;align=center;verticalAlign=middle;resizable=0;points=[];autosize=1;strokeColor=none;fillColor=none;" parent="imZKD1N6SDobM8C1172t-37" vertex="1">
          <mxGeometry y="40" width="110" height="30" as="geometry" />
        </mxCell>
        <mxCell id="imZKD1N6SDobM8C1172t-38" value="getProductById(product ID)&lt;br&gt;&lt;br&gt;product.getItems()&lt;br&gt;&lt;br&gt;foreach (address in items)&lt;br&gt;&lt;br&gt;if address.getId == address ID&lt;br&gt;&lt;br&gt;return TRUE" style="rounded=0;whiteSpace=wrap;html=1;" parent="1" vertex="1">
          <mxGeometry x="2180" y="-1271" width="200" height="140" as="geometry" />
        </mxCell>
        <mxCell id="imZKD1N6SDobM8C1172t-46" style="edgeStyle=orthogonalEdgeStyle;rounded=0;orthogonalLoop=1;jettySize=auto;html=1;entryX=0;entryY=0.5;entryDx=0;entryDy=0;" parent="1" source="imZKD1N6SDobM8C1172t-74" target="imZKD1N6SDobM8C1172t-51" edge="1">
          <mxGeometry relative="1" as="geometry">
            <mxPoint x="2370" y="-771" as="targetPoint" />
          </mxGeometry>
        </mxCell>
        <mxCell id="imZKD1N6SDobM8C1172t-78" value="TRUE" style="edgeLabel;html=1;align=center;verticalAlign=middle;resizable=0;points=[];" parent="imZKD1N6SDobM8C1172t-46" vertex="1" connectable="0">
          <mxGeometry x="-0.2403" y="2" relative="1" as="geometry">
            <mxPoint as="offset" />
          </mxGeometry>
        </mxCell>
        <mxCell id="imZKD1N6SDobM8C1172t-49" value="" style="group" parent="1" vertex="1" connectable="0">
          <mxGeometry x="2510" y="-791" width="140" height="70" as="geometry" />
        </mxCell>
        <mxCell id="imZKD1N6SDobM8C1172t-50" value="" style="group" parent="imZKD1N6SDobM8C1172t-49" vertex="1" connectable="0">
          <mxGeometry x="35" width="40" height="40" as="geometry" />
        </mxCell>
        <mxCell id="imZKD1N6SDobM8C1172t-51" value="" style="ellipse;whiteSpace=wrap;html=1;" parent="imZKD1N6SDobM8C1172t-50" vertex="1">
          <mxGeometry width="40" height="40" as="geometry" />
        </mxCell>
        <mxCell id="imZKD1N6SDobM8C1172t-52" value="200" style="ellipse;whiteSpace=wrap;html=1;" parent="imZKD1N6SDobM8C1172t-50" vertex="1">
          <mxGeometry x="5" y="5" width="30" height="30" as="geometry" />
        </mxCell>
        <mxCell id="imZKD1N6SDobM8C1172t-53" value="add quantity to Item" style="text;html=1;align=center;verticalAlign=middle;resizable=0;points=[];autosize=1;strokeColor=none;fillColor=none;" parent="imZKD1N6SDobM8C1172t-49" vertex="1">
          <mxGeometry x="-10" y="40" width="130" height="30" as="geometry" />
        </mxCell>
        <mxCell id="imZKD1N6SDobM8C1172t-55" style="edgeStyle=orthogonalEdgeStyle;rounded=0;orthogonalLoop=1;jettySize=auto;html=1;strokeColor=#FF0000;strokeWidth=2;" parent="1" source="imZKD1N6SDobM8C1172t-15" target="imZKD1N6SDobM8C1172t-14" edge="1">
          <mxGeometry relative="1" as="geometry">
            <Array as="points">
              <mxPoint x="1395" y="-1040" />
            </Array>
          </mxGeometry>
        </mxCell>
        <mxCell id="imZKD1N6SDobM8C1172t-70" style="edgeStyle=orthogonalEdgeStyle;rounded=0;orthogonalLoop=1;jettySize=auto;html=1;entryX=0;entryY=0.5;entryDx=0;entryDy=0;" parent="1" target="imZKD1N6SDobM8C1172t-61" edge="1">
          <mxGeometry relative="1" as="geometry">
            <mxPoint x="1700" y="-920" as="sourcePoint" />
          </mxGeometry>
        </mxCell>
        <mxCell id="imZKD1N6SDobM8C1172t-56" value="moveToAddress: &lt;i&gt;&quot;/move&quot;&lt;/i&gt;" style="swimlane;whiteSpace=wrap;html=1;" parent="1" vertex="1">
          <mxGeometry x="1500" y="-1000" width="200" height="200" as="geometry" />
        </mxCell>
        <mxCell id="imZKD1N6SDobM8C1172t-57" value="&lt;ul&gt;&lt;li&gt;Item ID&lt;/li&gt;&lt;li&gt;Address ID&lt;/li&gt;&lt;li&gt;&lt;span style=&quot;background-color: initial;&quot;&gt;employee&lt;/span&gt;&lt;br&gt;&lt;/li&gt;&lt;/ul&gt;" style="text;html=1;align=center;verticalAlign=middle;resizable=0;points=[];autosize=1;strokeColor=none;fillColor=none;" parent="imZKD1N6SDobM8C1172t-56" vertex="1">
          <mxGeometry x="-1" y="30" width="120" height="80" as="geometry" />
        </mxCell>
        <mxCell id="ZWg43RYlgXbW-FR2VFtU-2" value="Returns 422 if:&lt;br&gt;-&amp;gt; address does not exists&lt;br&gt;-&amp;gt; employee does not exists&lt;br&gt;-&amp;gt; item does not exists" style="text;html=1;strokeColor=none;fillColor=none;align=center;verticalAlign=middle;whiteSpace=wrap;rounded=0;" vertex="1" parent="imZKD1N6SDobM8C1172t-56">
          <mxGeometry x="10" y="129" width="162" height="30" as="geometry" />
        </mxCell>
        <mxCell id="ZWg43RYlgXbW-FR2VFtU-55" value="&lt;div style=&quot;background-color:#2b2b2b;color:#a9b7c6&quot;&gt;&lt;pre style=&quot;font-family:&#39;JetBrains Mono&#39;,monospace;font-size:9,8pt;&quot;&gt;MoveItemRequestDto&lt;/pre&gt;&lt;/div&gt;" style="text;whiteSpace=wrap;html=1;" vertex="1" parent="imZKD1N6SDobM8C1172t-56">
          <mxGeometry x="35" y="159" width="130" height="30" as="geometry" />
        </mxCell>
        <mxCell id="imZKD1N6SDobM8C1172t-58" style="edgeStyle=orthogonalEdgeStyle;rounded=0;orthogonalLoop=1;jettySize=auto;html=1;strokeWidth=2;strokeColor=#FF0000;" parent="1" source="imZKD1N6SDobM8C1172t-4" target="imZKD1N6SDobM8C1172t-23" edge="1">
          <mxGeometry relative="1" as="geometry">
            <Array as="points">
              <mxPoint x="1266" y="-720" />
            </Array>
          </mxGeometry>
        </mxCell>
        <mxCell id="imZKD1N6SDobM8C1172t-66" style="edgeStyle=orthogonalEdgeStyle;rounded=0;orthogonalLoop=1;jettySize=auto;html=1;" parent="1" source="imZKD1N6SDobM8C1172t-61" target="imZKD1N6SDobM8C1172t-23" edge="1">
          <mxGeometry relative="1" as="geometry" />
        </mxCell>
        <mxCell id="imZKD1N6SDobM8C1172t-68" value="&amp;nbsp;TRUE&amp;nbsp;" style="edgeLabel;html=1;align=center;verticalAlign=middle;resizable=0;points=[];" parent="imZKD1N6SDobM8C1172t-66" vertex="1" connectable="0">
          <mxGeometry x="-0.767" y="1" relative="1" as="geometry">
            <mxPoint as="offset" />
          </mxGeometry>
        </mxCell>
        <mxCell id="imZKD1N6SDobM8C1172t-67" style="edgeStyle=orthogonalEdgeStyle;rounded=0;orthogonalLoop=1;jettySize=auto;html=1;" parent="1" source="imZKD1N6SDobM8C1172t-61" target="imZKD1N6SDobM8C1172t-14" edge="1">
          <mxGeometry relative="1" as="geometry">
            <Array as="points">
              <mxPoint x="1850" y="-1031" />
            </Array>
          </mxGeometry>
        </mxCell>
        <mxCell id="imZKD1N6SDobM8C1172t-69" value="&amp;nbsp;FALSE&amp;nbsp;" style="edgeLabel;html=1;align=center;verticalAlign=middle;resizable=0;points=[];" parent="imZKD1N6SDobM8C1172t-67" vertex="1" connectable="0">
          <mxGeometry x="-0.7508" y="1" relative="1" as="geometry">
            <mxPoint as="offset" />
          </mxGeometry>
        </mxCell>
        <mxCell id="imZKD1N6SDobM8C1172t-61" value="If already&lt;br&gt;exists" style="rhombus;whiteSpace=wrap;html=1;" parent="1" vertex="1">
          <mxGeometry x="1810" y="-960" width="80" height="80" as="geometry" />
        </mxCell>
        <mxCell id="imZKD1N6SDobM8C1172t-74" value="If added quantity&lt;br&gt;&amp;gt;0" style="rhombus;whiteSpace=wrap;html=1;" parent="1" vertex="1">
          <mxGeometry x="2380" y="-811" width="80" height="80" as="geometry" />
        </mxCell>
        <mxCell id="ZWg43RYlgXbW-FR2VFtU-1" style="edgeStyle=orthogonalEdgeStyle;rounded=0;orthogonalLoop=1;jettySize=auto;html=1;strokeWidth=2;strokeColor=#FF0000;" edge="1" parent="1" source="imZKD1N6SDobM8C1172t-5" target="imZKD1N6SDobM8C1172t-56">
          <mxGeometry relative="1" as="geometry">
            <Array as="points">
              <mxPoint x="1313" y="-910" />
            </Array>
          </mxGeometry>
        </mxCell>
        <mxCell id="imZKD1N6SDobM8C1172t-73" style="edgeStyle=orthogonalEdgeStyle;rounded=0;orthogonalLoop=1;jettySize=auto;html=1;strokeColor=#FF0000;strokeWidth=2;" parent="1" source="imZKD1N6SDobM8C1172t-6" edge="1" target="imZKD1N6SDobM8C1172t-23">
          <mxGeometry relative="1" as="geometry">
            <mxPoint x="1356" y="-720" as="targetPoint" />
            <Array as="points">
              <mxPoint x="1790" y="-758" />
              <mxPoint x="1790" y="-758" />
            </Array>
          </mxGeometry>
        </mxCell>
        <mxCell id="ZWg43RYlgXbW-FR2VFtU-4" value="" style="edgeStyle=orthogonalEdgeStyle;rounded=0;orthogonalLoop=1;jettySize=auto;html=1;" edge="1" parent="1" source="imZKD1N6SDobM8C1172t-26" target="imZKD1N6SDobM8C1172t-31">
          <mxGeometry relative="1" as="geometry">
            <mxPoint x="2320" y="-1031" as="sourcePoint" />
            <mxPoint x="2440" y="-1030.9999999999998" as="targetPoint" />
          </mxGeometry>
        </mxCell>
        <mxCell id="ZWg43RYlgXbW-FR2VFtU-5" value="FALSE" style="edgeLabel;html=1;align=center;verticalAlign=middle;resizable=0;points=[];" vertex="1" connectable="0" parent="ZWg43RYlgXbW-FR2VFtU-4">
          <mxGeometry x="-0.6379" y="-1" relative="1" as="geometry">
            <mxPoint x="8" y="-1" as="offset" />
          </mxGeometry>
        </mxCell>
        <mxCell id="ZWg43RYlgXbW-FR2VFtU-13" style="edgeStyle=orthogonalEdgeStyle;rounded=0;orthogonalLoop=1;jettySize=auto;html=1;" edge="1" parent="1" source="ZWg43RYlgXbW-FR2VFtU-10" target="ZWg43RYlgXbW-FR2VFtU-12">
          <mxGeometry relative="1" as="geometry">
            <mxPoint x="2271.45" y="-721" as="sourcePoint" />
          </mxGeometry>
        </mxCell>
        <mxCell id="ZWg43RYlgXbW-FR2VFtU-14" value="TRUE" style="edgeLabel;html=1;align=center;verticalAlign=middle;resizable=0;points=[];" vertex="1" connectable="0" parent="ZWg43RYlgXbW-FR2VFtU-13">
          <mxGeometry x="-0.3575" y="2" relative="1" as="geometry">
            <mxPoint as="offset" />
          </mxGeometry>
        </mxCell>
        <mxCell id="ZWg43RYlgXbW-FR2VFtU-12" value="E400&lt;br&gt;Bad request" style="whiteSpace=wrap;html=1;aspect=fixed;" vertex="1" parent="1">
          <mxGeometry x="2390.0000000000005" y="-540" width="60" height="60" as="geometry" />
        </mxCell>
        <mxCell id="ZWg43RYlgXbW-FR2VFtU-15" value="" style="edgeStyle=orthogonalEdgeStyle;rounded=0;orthogonalLoop=1;jettySize=auto;html=1;" edge="1" parent="1" source="imZKD1N6SDobM8C1172t-74" target="ZWg43RYlgXbW-FR2VFtU-10">
          <mxGeometry relative="1" as="geometry">
            <Array as="points" />
            <mxPoint x="2420" y="-731" as="sourcePoint" />
            <mxPoint x="1950" y="-540" as="targetPoint" />
          </mxGeometry>
        </mxCell>
        <mxCell id="ZWg43RYlgXbW-FR2VFtU-16" value="FALSE" style="edgeLabel;html=1;align=center;verticalAlign=middle;resizable=0;points=[];" vertex="1" connectable="0" parent="ZWg43RYlgXbW-FR2VFtU-15">
          <mxGeometry x="-0.9421" y="2" relative="1" as="geometry">
            <mxPoint x="-2" y="8" as="offset" />
          </mxGeometry>
        </mxCell>
        <mxCell id="ZWg43RYlgXbW-FR2VFtU-40" style="edgeStyle=orthogonalEdgeStyle;rounded=0;orthogonalLoop=1;jettySize=auto;html=1;" edge="1" parent="1" source="ZWg43RYlgXbW-FR2VFtU-10" target="ZWg43RYlgXbW-FR2VFtU-46">
          <mxGeometry relative="1" as="geometry">
            <mxPoint x="2540" y="-640" as="targetPoint" />
          </mxGeometry>
        </mxCell>
        <mxCell id="ZWg43RYlgXbW-FR2VFtU-41" value="&amp;nbsp;FALSE&amp;nbsp;" style="edgeLabel;html=1;align=center;verticalAlign=middle;resizable=0;points=[];" vertex="1" connectable="0" parent="ZWg43RYlgXbW-FR2VFtU-40">
          <mxGeometry x="-0.7045" y="-2" relative="1" as="geometry">
            <mxPoint as="offset" />
          </mxGeometry>
        </mxCell>
        <mxCell id="ZWg43RYlgXbW-FR2VFtU-43" style="edgeStyle=orthogonalEdgeStyle;rounded=0;orthogonalLoop=1;jettySize=auto;html=1;endArrow=diamond;endFill=1;" edge="1" parent="1" source="ZWg43RYlgXbW-FR2VFtU-10" target="ZWg43RYlgXbW-FR2VFtU-42">
          <mxGeometry relative="1" as="geometry" />
        </mxCell>
        <mxCell id="ZWg43RYlgXbW-FR2VFtU-10" value="If new &lt;br&gt;quantity&lt;br&gt;&amp;lt;0" style="rhombus;whiteSpace=wrap;html=1;" vertex="1" parent="1">
          <mxGeometry x="2380" y="-681" width="80" height="80" as="geometry" />
        </mxCell>
        <mxCell id="ZWg43RYlgXbW-FR2VFtU-42" value="getItemById(ItemID)&lt;br&gt;&lt;br&gt;qty = item.getIQuantity()&lt;br&gt;&lt;br&gt;if qty + quantity &amp;lt; 0&lt;br&gt;&lt;br&gt;return TRUE" style="rounded=0;whiteSpace=wrap;html=1;" vertex="1" parent="1">
          <mxGeometry x="2140" y="-696.5" width="200" height="111" as="geometry" />
        </mxCell>
        <mxCell id="ZWg43RYlgXbW-FR2VFtU-44" value="" style="group" vertex="1" connectable="0" parent="1">
          <mxGeometry x="2550" y="-660" width="40" height="40" as="geometry" />
        </mxCell>
        <mxCell id="ZWg43RYlgXbW-FR2VFtU-45" value="" style="ellipse;whiteSpace=wrap;html=1;" vertex="1" parent="ZWg43RYlgXbW-FR2VFtU-44">
          <mxGeometry width="40" height="40" as="geometry" />
        </mxCell>
        <mxCell id="ZWg43RYlgXbW-FR2VFtU-46" value="200" style="ellipse;whiteSpace=wrap;html=1;" vertex="1" parent="ZWg43RYlgXbW-FR2VFtU-44">
          <mxGeometry x="5" y="5" width="30" height="30" as="geometry" />
        </mxCell>
        <mxCell id="ZWg43RYlgXbW-FR2VFtU-48" value="reduce quantity to Item" style="text;html=1;align=center;verticalAlign=middle;resizable=0;points=[];autosize=1;strokeColor=none;fillColor=none;" vertex="1" parent="1">
          <mxGeometry x="2495" y="-614" width="150" height="30" as="geometry" />
        </mxCell>
        <mxCell id="ZWg43RYlgXbW-FR2VFtU-49" value="" style="shape=curlyBracket;whiteSpace=wrap;html=1;rounded=1;labelPosition=left;verticalLabelPosition=middle;align=right;verticalAlign=middle;rotation=-180;" vertex="1" parent="1">
          <mxGeometry x="910" y="-845" width="20" height="170" as="geometry" />
        </mxCell>
        <mxCell id="ZWg43RYlgXbW-FR2VFtU-50" value="Afficher chaque item&lt;br&gt;si sa quantity est supérieure à 0&lt;br&gt;&lt;br&gt;Sinon ne pas l&#39;afficher." style="rounded=0;whiteSpace=wrap;html=1;" vertex="1" parent="1">
          <mxGeometry x="720" y="-842" width="170" height="162" as="geometry" />
        </mxCell>
      </root>
    </mxGraphModel>
  </diagram>
</mxfile>
